<svg xmlns="http://www.w3.org/2000/svg" viewBox="0 0 533.5 544.3">
  <path
    fill="#4285F4"
    d="M533.5 278.4c0-18.5-1.7-36.2-4.7-53.2H272v100.7h146.9c-6.3 34-25.4 62.8-54.1 82.1v68h87.4c51.2-47.2 80.7-116.9 80.7-197.6z"
  />
  <path
    fill="#34A853"
    d="M272 544.3c72.9 0 134.1-24.1 178.8-65.4l-87.4-68c-24.3 16.3-55.4 25.9-91.4 25.9-70.2 0-129.7-47.4-151-111.2H30.6v69.9C75.2 484.5 166.2 544.3 272 544.3z"
  />
  <path
    fill="#FBBC05"
    d="M121 325.6c-5.4-16.3-8.5-33.7-8.5-51.6 0-17.9 3.1-35.3 8.5-51.6v-69.9H30.6C11 191.1 0 231.4 0 274s11 82.9 30.6 121.5L121 325.6z"
  />
  <path
    fill="#EA4335"
    d="M272 108.7c39.6 0 75.2 13.6 103.2 40.2l77.4-77.4C406 27.2 344.8 0 272 0 166.2 0 75.2 59.8 30.6 148.5l90.4 69.9C142.3 156.1 201.8 108.7 272 108.7z"
  />
</svg>
